<?xml version="1.0" encoding="UTF-8" standalone="no"?>
<svg
   width="299.633"
   height="55"
   viewBox="0 0 299.633 55.000001"
   version="1.1"
   id="svg9"
   sodipodi:docname="deskapp-logo.svg"
   xml:space="preserve"
   inkscape:export-filename="deskapp-logo.png"
   inkscape:export-xdpi="96"
   inkscape:export-ydpi="96"
   inkscape:version="1.3 (0e150ed6c4, 2023-07-21)"
   xmlns:inkscape="http://www.inkscape.org/namespaces/inkscape"
   xmlns:sodipodi="http://sodipodi.sourceforge.net/DTD/sodipodi-0.dtd"
   xmlns="http://www.w3.org/2000/svg"
   xmlns:svg="http://www.w3.org/2000/svg"><defs
     id="defs13" /><sodipodi:namedview
     id="namedview11"
     pagecolor="#ffffff"
     bordercolor="#000000"
     borderopacity="0.25"
     inkscape:showpageshadow="2"
     inkscape:pageopacity="0.0"
     inkscape:pagecheckerboard="0"
     inkscape:deskcolor="#d1d1d1"
     showgrid="false"
     inkscape:lockguides="true"
     inkscape:zoom="1.862582"
     inkscape:cx="210.19209"
     inkscape:cy="52.883578"
     inkscape:window-width="2560"
     inkscape:window-height="1011"
     inkscape:window-x="0"
     inkscape:window-y="0"
     inkscape:window-maximized="1"
     inkscape:current-layer="g613" /><g
     id="deskapp-logo"
     transform="translate(-329.089,-601.197)"><g
       id="g613"
       transform="translate(-1857.2872,-1615.376)"><path
         fill="#094a75"
         opacity="1"
         stroke="none"
         d="m 2214.1902,2263.2174 c -0.1089,-0.16 -0.2031,-0.2968 -0.3056,-0.4269 -3.5676,-4.5364 -7.8004,-8.3513 -12.5793,-11.5739 -0.9442,-0.6365 -1.8922,-1.2674 -2.8702,-1.8505 -0.4255,-0.2537 -0.6315,-0.5953 -0.633,-1.0867 0,-0.6004 -0.1411,-1.1828 -0.2731,-1.7647 -0.114,-0.5008 -0.2214,-1.0029 -0.2483,-1.5174 -0.024,-0.4639 0.028,-0.9156 0.2616,-1.3284 0.1677,-0.2956 0.4387,-0.3785 0.7438,-0.2338 0.062,0.029 0.1202,0.069 0.1744,0.1114 0.066,0.053 0.1242,0.1113 0.185,0.1678 4.4339,4.1394 8.55,8.5706 12.2726,13.362 3.3196,4.2727 6.2824,8.7784 8.859,13.569 0.028,0.076 0.017,0.114 -0.062,0.1402 -0.7278,-0.8319 -1.4079,-1.6748 -2.1183,-2.4915 -2.5387,-2.9189 -5.2817,-5.6284 -8.319,-8.0324 -1.964,-1.5545 -4.032,-2.9511 -6.2665,-4.0923 -0.9775,-0.4991 -1.9796,-0.942 -3.0146,-1.309 -0.1309,-0.047 -0.261,-0.095 -0.3903,-0.1445 -0.4775,-0.1836 -0.8756,-0.4687 -1.1855,-0.8825 -0.5926,-0.7911 -1.0136,-1.6528 -1.1414,-2.6432 -0.037,-0.2919 -0.039,-0.5817 0.03,-0.8687 0.075,-0.3099 0.3408,-0.447 0.6378,-0.318 0.1389,0.061 0.2671,0.1472 0.396,0.2289 2.8204,1.7841 5.5079,3.7506 8.078,5.878 2.6885,2.2251 5.2336,4.6029 7.6458,7.1615 0.2817,0.1002 0.3653,0.3583 0.5555,0.5495 0.07,0.069 0.1178,0.1189 0.1856,0.1857 0.054,0.055 0.07,0.1011 0.094,0.1688 0.036,0.043 0.059,0.066 0.098,0.1051 0.05,0.05 0.083,0.083 0.1313,0.1317 0.033,0.036 0.077,0.053 0.077,0.047 0,-0.056 0.025,0 -0.046,-0.017 -0.049,-0.048 -0.082,-0.083 -0.1316,-0.1315 -0.039,-0.039 -0.061,-0.063 -0.1002,-0.1021 -0.048,-0.058 -0.048,-0.1102 -0.093,-0.1693 -0.064,-0.068 -0.1127,-0.1178 -0.1815,-0.1847 -0.1692,-0.213 -0.3364,-0.3939 -0.4671,-0.6364 z"
         id="path295"
         style="stroke-width:0.0208434" /><path
         fill="#074975"
         opacity="1"
         stroke="none"
         d="m 2226.6627,2244.6831 c 0.019,0.3854 -0.093,0.731 -0.1661,1.0819 -0.6078,2.872 -1.1888,5.7492 -1.7464,8.6313 -0.15,0.7749 -0.3065,1.5486 -0.4595,2.3548 0.077,0.5128 -0.169,0.9439 -0.218,1.4071 -0.018,0.1723 -0.048,0.3541 -0.1012,0.5603 -0.2259,0.7663 -0.3105,1.5321 -0.5117,2.2698 0.2021,-0.707 0.2781,-1.4448 0.5002,-2.1817 0.1115,-0.6853 0.2363,-1.3331 0.4522,-1.9928 0.1708,-0.4316 0.2406,-0.8569 0.3397,-1.2738 1.0172,-4.2752 2.0985,-8.5341 3.2114,-12.7853 0.013,-0.054 0.033,-0.1062 0.064,-0.1885 0.1192,-0.1404 0.2595,-0.1545 0.3985,-0.1549 1.0408,0 2.082,-0.028 3.1225,0.027 0.07,0 0.1367,0.019 0.2286,0.079 -0.1547,0.5062 -0.3331,0.9867 -0.5226,1.4628 -2.2754,5.7206 -4.3799,11.5041 -6.4099,17.3153 -1.1155,3.1928 -2.207,6.3938 -3.26,9.6081 -0.017,0.053 -0.039,0.1031 -0.071,0.184 -0.028,0.039 -0.044,0.048 -0.087,0.045 0.022,-0.8595 0.066,-1.7048 0.1178,-2.5496 0.033,-0.5263 0.078,-1.0518 0.1152,-1.5778 0.095,-1.3569 0.182,-2.7144 0.2844,-4.0706 0.1204,-1.5915 0.2537,-3.1819 0.3807,-4.7728 0.095,-1.1898 0.1848,-2.38 0.2852,-3.5694 0.094,-1.1063 0.1979,-2.2115 0.296,-3.3176 0.095,-1.0643 0.1827,-2.1293 0.2809,-3.1934 0.094,-1.0224 0.198,-2.0439 0.3107,-3.0973 0.1602,-0.1608 0.3421,-0.1567 0.5207,-0.1583 0.3989,0 0.7991,-0.019 1.1967,0 0.4843,0.028 0.95,-0.055 1.4461,-0.1459 z"
         id="path297"
         style="stroke-width:0.0208434" /><path
         fill="#084d7c"
         opacity="1"
         stroke="none"
         d="m 2212.8679,2248.9776 c -0.1598,-0.1941 -0.2042,-0.4 -0.2776,-0.5924 -1.5744,-4.1191 -3.2045,-8.2155 -5.0018,-12.2437 -0.6613,-1.4819 -1.3467,-2.9526 -2.0812,-4.4 -0.2553,-0.5029 -0.273,-1.0022 -0.037,-1.5195 0.3245,-0.7135 0.7163,-1.3788 1.2931,-1.9212 0.6331,-0.5957 1.38,-0.9003 2.2548,-0.9309 0.5213,-0.017 0.9187,0.3563 1.0327,0.7449 0.1405,0.4789 0.2892,0.9553 0.4304,1.434 1.4867,5.0397 2.8861,10.1036 4.1998,15.1912 0.3569,1.3825 0.71,2.766 1.0624,4.1812 -0.094,0.132 -0.2166,0.1533 -0.341,0.1558 -0.7418,0.015 -1.4835,0.015 -2.2252,10e-5 -0.097,0 -0.1909,-0.023 -0.3087,-0.1001 z"
         id="path299"
         style="stroke-width:0.0208434" /><path
         fill="#084e7d"
         opacity="1"
         stroke="none"
         d="m 2226.7139,2244.6807 c -0.1165,0.024 -0.2101,0.023 -0.2831,0.1075 -0.1288,0.15 -0.3033,0.1671 -0.4882,0.1663 -0.784,0 -1.5682,0 -2.3912,0 -0.059,-0.5297 0.043,-1.0501 0.086,-1.5748 0.058,-0.6914 0.136,-1.3808 0.2069,-2.0709 0.1023,-0.9937 0.2051,-1.9875 0.3085,-2.9812 0.094,-0.8971 0.1846,-1.7944 0.2816,-2.6912 0.097,-0.8968 0.2,-1.7928 0.3008,-2.6891 0.093,-0.8272 0.1847,-1.6548 0.281,-2.4818 0.097,-0.8405 0.2,-1.6807 0.3017,-2.5208 0.091,-0.7577 0.1874,-1.5147 0.2754,-2.2727 0.017,-0.1548 0.055,-0.3005 0.1289,-0.4355 0.1558,-0.283 0.3888,-0.4584 0.7106,-0.5264 0.7265,-0.1534 1.4355,-0.1076 2.13,0.1558 0.8673,0.3292 1.5673,0.8872 2.1478,1.5972 0.2971,0.3639 0.302,0.7958 0.1869,1.2282 -0.1821,0.6834 -0.3793,1.3626 -0.5674,2.0444 -0.8705,3.1554 -1.6578,6.3319 -2.3922,9.5213 -0.3918,1.703 -0.7652,3.41 -1.1465,5.1154 -0.022,0.095 -0.039,0.1901 -0.077,0.3102 z"
         id="path301"
         style="stroke-width:0.0208434" /><path
         fill="#094b79"
         opacity="1"
         stroke="none"
         d="m 2221.0413,2270.2183 c -0.043,-0.5035 -0.072,-0.9884 -0.094,-1.4733 -0.07,-1.5666 -0.1301,-3.1336 -0.2046,-4.6997 -0.078,-1.6356 -0.1644,-3.2707 -0.2539,-4.9058 -0.076,-1.3993 -0.1577,-2.7984 -0.2457,-4.1972 -0.1064,-1.7033 -0.2185,-3.4065 -0.3371,-5.1091 -0.1044,-1.4811 -0.2125,-2.962 -0.3312,-4.442 -0.1191,-1.4798 -0.2502,-2.9585 -0.3804,-4.4375 -0.1179,-1.3407 -0.2413,-2.6808 -0.3652,-4.0209 -0.045,-0.4973 -0.1001,-0.9938 -0.1459,-1.527 0.1362,-0.1667 0.306,-0.1634 0.471,-0.1659 1.4364,-0.022 2.8734,0.033 4.3095,-0.033 0.041,0 0.082,0.017 0.1519,0.055 0.012,0.3295 -0.012,0.6338 -0.034,0.9373 -0.1253,1.3963 -0.2587,2.7918 -0.3795,4.1887 -0.1012,1.1755 -0.1897,2.3522 -0.2849,3.5284 -0.099,1.2175 -0.2018,2.4346 -0.2966,3.6525 -0.071,0.9136 -0.1307,1.828 -0.1976,2.7417 -0.07,0.9553 -0.1437,1.9102 -0.2144,2.8655 -0.034,0.4569 -0.066,0.9138 -0.096,1.371 -0.095,1.4685 -0.1903,2.9369 -0.2839,4.4054 -0.085,1.3301 -0.1692,2.6602 -0.2503,3.9904 -0.087,1.3995 -0.1684,2.7991 -0.2497,4.1987 -0.059,0.998 -0.1114,1.996 -0.1747,3.0239 -0.028,0.063 -0.058,0.075 -0.1127,0.054 z"
         id="path303"
         style="stroke-width:0.0208434" /><path
         fill="#084f81"
         opacity="1"
         stroke="none"
         d="m 2223.659,2235.2514 c -0.7495,0.1768 -1.496,0.1063 -2.239,0.1151 -0.8848,0.012 -1.7696,0 -2.6926,0 -0.096,-0.4677 -0.1564,-0.935 -0.2099,-1.4031 -0.1077,-0.9372 -0.2085,-1.8749 -0.3171,-2.8118 -0.1179,-1.0197 -0.2366,-2.0394 -0.3656,-3.0576 -0.1178,-0.9357 -0.2513,-1.8695 -0.3772,-2.8041 -0.017,-0.124 -0.012,-0.253 -0.048,-0.3709 -0.067,-0.2256 0,-0.3954 0.1466,-0.5708 1.0869,-1.3472 2.4922,-1.8908 4.2002,-1.6733 0.8752,0.1114 1.65,0.4532 2.3363,1.0124 0.4873,0.397 0.6757,0.8971 0.6084,1.5077 -0.078,0.717 -0.1618,1.4335 -0.2402,2.1506 -0.066,0.6068 -0.13,1.2138 -0.193,1.821 -0.1022,0.9934 -0.2067,1.9867 -0.3069,2.9805 -0.067,0.6624 -0.1287,1.3255 -0.1918,1.9884 -0.034,0.3591 -0.066,0.7183 -0.1102,1.1131 z"
         id="path305"
         style="stroke-width:0.0208434" /><path
         fill="#084e7d"
         opacity="1"
         stroke="none"
         d="m 2231.8243,2242.5244 c -0.2778,0 -0.5307,0.076 -0.7972,0.023 -0.2399,-0.048 -0.4973,-0.012 -0.7471,-0.012 -0.7215,2e-4 -1.4428,3e-4 -2.202,0 0.1204,-0.6169 0.2737,-1.2353 0.4383,-1.8506 1.1071,-4.1407 2.2671,-8.2663 3.5031,-12.3705 0.028,-0.093 0.054,-0.1872 0.088,-0.2778 0.1639,-0.4247 0.4998,-0.6565 0.9608,-0.6609 0.7808,-0.012 1.472,0.2436 2.0783,0.7322 0.4044,0.326 0.7296,0.7216 1.0078,1.1578 0.202,0.3166 0.3653,0.6536 0.5234,0.9938 0.2268,0.4882 0.201,0.9671 -0.037,1.4427 -0.2054,0.4093 -0.4107,0.8186 -0.6102,1.2309 -1.4811,3.0615 -2.811,6.1891 -4.0909,9.3386 -0.031,0.077 -0.064,0.1539 -0.1139,0.2516 z"
         id="path307"
         style="stroke-width:0.0208434" /><path
         fill="#084873"
         opacity="1"
         stroke="none"
         d="m 2237.4652,2253.5964 c -0.07,0.1414 -0.1733,0.1922 -0.2593,0.2593 -3.4575,2.6983 -6.5117,5.7974 -9.2098,9.25 -0.066,0.083 -0.2142,0.1505 -0.1298,0.305 0.1545,0.017 0.2084,-0.1163 0.2884,-0.2003 1.4825,-1.5624 3.0139,-3.0754 4.6083,-4.5242 3.4308,-3.1176 7.0774,-5.9546 10.9964,-8.4373 0.129,-0.081 0.2561,-0.1692 0.3937,-0.2333 0.3157,-0.1473 0.5901,-0.017 0.67,0.3178 0.072,0.3011 0.065,0.6093 0.019,0.9116 -0.1648,1.1031 -0.6522,2.0569 -1.3917,2.8826 -0.2938,0.3286 -0.693,0.5017 -1.0992,0.6547 -0.4806,0.1808 -0.9643,0.3547 -1.438,0.5527 -2.189,0.9156 -4.2143,2.1214 -6.1465,3.489 -2.205,1.5608 -4.2494,3.3137 -6.1881,5.1914 -2.0181,1.9547 -3.9084,4.0264 -5.6743,6.2111 -0.061,0.075 -0.1299,0.1426 -0.1969,0.2121 -0.037,0.039 -0.083,0.015 -0.114,0 -0.03,-0.018 -0.075,-0.052 -0.054,-0.1012 0.056,-0.1265 0.1089,-0.2537 0.1753,-0.3741 0.6839,-1.2398 1.3932,-2.4648 2.1306,-3.6739 2.7754,-4.5502 5.9077,-8.8418 9.3915,-12.9083 0.1254,-0.059 0.222,-0.1215 0.3347,-0.1253 0.8433,-0.025 1.687,-0.031 2.53,0 0.183,0.012 0.3623,0.065 0.3622,0.3411 z"
         id="path309"
         style="stroke-width:0.0208434" /><path
         fill="#084873"
         opacity="1"
         stroke="none"
         d="m 2220.0407,2270.47 c -0.4399,-0.7404 -0.8362,-1.4715 -1.2486,-2.1937 -2.3487,-4.1138 -4.961,-8.0555 -7.7868,-11.8567 -1.9139,-2.5746 -3.9334,-5.0638 -6.0676,-7.4973 0.062,-0.1355 0.1764,-0.1461 0.2851,-0.1216 0.8903,0.2011 1.7929,0.061 2.6884,0.1022 0.2057,0.012 0.4173,-0.025 0.6419,0.1075 0.114,0.1348 0.2008,0.242 0.2747,0.3575 1.921,3.0069 3.7686,6.0579 5.5336,9.1589 0.055,0.096 0.1102,0.1929 0.1664,0.2885 0.036,0.062 0.085,0.1165 0.1623,0.073 0.061,-0.034 0.039,-0.096 0.015,-0.145 -0.065,-0.1379 -0.1325,-0.2749 -0.2018,-0.4108 -1.8623,-3.6492 -3.8976,-7.2004 -6.049,-10.686 -0.044,-0.071 -0.085,-0.1431 -0.1337,-0.2435 0.083,-0.1749 0.2293,-0.225 0.3837,-0.2307 0.8026,-0.029 1.6056,-0.039 2.4081,0 0.055,0 0.1065,0.03 0.1867,0.083 0.1286,0.1316 0.1571,0.2707 0.2093,0.3978 2.1013,5.1222 4.0863,10.2895 5.997,15.4851 0.8856,2.4088 1.7475,4.8263 2.6297,7.2715 -0.012,0.042 -0.035,0.056 -0.095,0.054 z"
         id="path311"
         style="stroke-width:0.0208434" /><path
         fill="#084c7b"
         opacity="1"
         stroke="none"
         d="m 2230.7929,2247.3956 c -0.036,-0.1295 0.02,-0.2131 0.058,-0.3018 1.6722,-4.0528 3.4034,-8.0793 5.3265,-12.0211 0.3954,-0.8105 0.8046,-1.6141 1.2085,-2.4203 0.043,-0.088 0.088,-0.1735 0.1383,-0.2564 0.2549,-0.4182 0.6395,-0.5712 1.1039,-0.4263 0.5031,0.1572 0.9192,0.4513 1.2693,0.8415 0.2896,0.3225 0.5193,0.6855 0.7175,1.0691 0.2488,0.4822 0.4454,0.9859 0.6118,1.5015 0.1361,0.4213 0.083,0.8218 -0.1564,1.1948 -0.075,0.1164 -0.1591,0.2274 -0.2402,0.3402 -2.4752,3.4544 -4.8339,6.9862 -7.0974,10.6122 -0.8499,-0.056 -1.678,-0.022 -2.5054,-0.031 -0.1384,0 -0.2773,-0.012 -0.433,-0.1012 z"
         id="path313"
         style="stroke-width:0.0208434" /><path
         fill="#084873"
         opacity="1"
         stroke="none"
         d="m 2230.7422,2247.3893 c 0.8627,-0.019 1.7039,-0.019 2.545,-0.019 0.1414,-2e-4 0.279,0 0.3924,0.1569 -0.012,0.1713 -0.1115,0.2885 -0.19,0.4174 -2.0914,3.4047 -4.0712,6.8721 -5.8868,10.4321 -0.089,0.1729 -0.1727,0.3475 -0.2651,0.5509 0.075,0.1491 -0.014,0.2359 -0.072,0.3198 -0.2537,0.3803 -0.4287,0.8023 -0.6374,1.2064 0.2546,-0.4966 0.5125,-0.9918 0.834,-1.4658 0.048,-0.012 0.061,-0.031 0.067,-0.071 0,-0.047 0.019,-0.073 0.054,-0.1126 0.123,-0.1936 0.235,-0.3676 0.3375,-0.5472 1.7455,-3.0532 3.5683,-6.0599 5.4893,-9.0372 0.148,-0.1215 0.2982,-0.1426 0.4534,-0.1436 0.7916,0 1.5833,-0.012 2.3749,0 0.1966,0 0.3917,0.028 0.5272,0.2546 -0.08,0.1576 -0.1683,0.2812 -0.2672,0.3954 -4.5263,5.2255 -8.5494,10.8144 -12.1078,16.7387 -0.7926,1.3196 -1.5477,2.6604 -2.2877,4.043 -0.037,0.034 -0.061,0.044 -0.1178,0.039 0.5976,-1.7759 1.222,-3.5391 1.862,-5.2967 2.0965,-5.755 4.276,-11.4782 6.5883,-17.1506 0.094,-0.2309 0.1899,-0.4613 0.3062,-0.7121 z"
         id="path315"
         style="stroke-width:0.0208434" /><path
         fill="#084c7b"
         opacity="1"
         stroke="none"
         d="m 2211.3319,2247.2564 c -0.8046,0.03 -1.6099,0.031 -2.415,0.028 -0.1822,0 -0.3604,0 -0.5656,0.084 -0.1345,-0.059 -0.1723,-0.1674 -0.2301,-0.2598 -2.1875,-3.5132 -4.4943,-6.9464 -6.9055,-10.31 -0.1459,-0.2037 -0.2915,-0.4047 -0.3465,-0.6575 -0.05,-0.2348 -0.064,-0.4653 0.012,-0.6976 0.2208,-0.6738 0.4751,-1.3325 0.8444,-1.9419 0.2391,-0.3946 0.5191,-0.7542 0.8796,-1.0472 0.2729,-0.2217 0.5744,-0.3908 0.9111,-0.4902 0.448,-0.1324 0.8245,0.012 1.0757,0.4094 0.06,0.094 0.1063,0.1945 0.1578,0.293 1.4289,2.7615 2.73,5.5834 3.9818,8.428 0.894,2.0314 1.762,4.074 2.5995,6.1604 z"
         id="path317"
         style="stroke-width:0.0208434" /><path
         fill="#064671"
         opacity="1"
         stroke="none"
         d="m 2212.8348,2248.9853 c 0.9429,-0.031 1.8862,-0.031 2.8676,-0.031 0.1792,0.5352 0.3291,1.0686 0.46,1.6064 0.5171,2.1261 1.0284,4.2538 1.5421,6.3808 0.012,0.04 0.025,0.079 0.052,0.1485 0.2547,0.42 0.2288,0.8801 0.3417,1.3042 0.082,0.3048 0.1296,0.618 0.2,0.926 -0.1301,-0.7167 -0.3185,-1.4231 -0.4085,-2.1751 -0.2163,-1.2218 -0.4449,-2.4127 -0.6754,-3.6035 -0.1519,-0.7849 -0.3064,-1.5691 -0.4565,-2.3874 0.097,-0.2022 0.031,-0.352 -0.073,-0.5166 -0.1459,-0.3107 -0.1543,-0.6314 -0.2352,-0.9705 0.078,-0.1429 0.1871,-0.2146 0.3138,-0.2222 0.7453,-0.042 1.4918,-0.1088 2.2641,0.066 0.041,0.1164 0.054,0.2047 0.06,0.3263 -0.073,0.099 -0.1051,0.1686 -0.012,0.2662 0.1001,0.2651 0.088,0.5238 0.1001,0.8148 -0.046,0.075 -0.059,0.1189 -0.013,0.1867 0.039,0.1101 0.069,0.2039 0.077,0.2994 0.095,1.1203 0.1866,2.2408 0.2811,3.3613 0.098,1.1619 0.2015,2.3233 0.2965,3.4853 0.071,0.8717 0.1314,1.7441 0.1988,2.6162 0.071,0.9134 0.1443,1.8265 0.2151,2.7398 0.035,0.4569 0.07,0.9137 0.1002,1.3708 0.095,1.4127 0.1881,2.8256 0.2834,4.2384 0.039,0.5817 0.083,1.1632 0.1204,1.7793 -0.025,0.066 -0.056,0.081 -0.114,0.059 -0.2903,-0.8186 -0.5633,-1.6179 -0.8308,-2.4187 -2.1934,-6.5689 -4.497,-13.0985 -6.9458,-19.5768 0,-0.012 -0.012,-0.026 -0.012,-0.072 z"
         id="path319"
         style="stroke-width:0.0208434" /><path
         fill="#084b79"
         opacity="1"
         stroke="none"
         d="m 2236.8053,2249.3591 c -0.1897,-0.1382 -0.386,-0.161 -0.6004,-0.1594 -0.897,0.012 -1.7941,0 -2.7306,0 -0.026,-0.1011 0.043,-0.1736 0.095,-0.2546 2.4742,-3.858 5.0744,-7.6292 7.8229,-11.2977 0.084,-0.1113 0.1615,-0.2271 0.2555,-0.3287 0.3135,-0.3381 0.6976,-0.3377 1.0156,0 0.2144,0.2254 0.3614,0.4913 0.4543,0.7864 0.093,0.2923 0.1537,0.5918 0.1631,0.8983 0.012,0.3608 0.012,0.7218 0.013,1.0826 0,0.2499 -0.012,0.4999 0,0.7496 0.012,0.5143 0.053,1.024 0.3189,1.5039 -2.3836,2.2248 -4.635,4.5654 -6.8049,7.0201 z"
         id="path321"
         style="stroke-width:0.0208434" /><path
         fill="#084c7a"
         opacity="1"
         stroke="none"
         d="m 2208.5815,2249.0064 c -0.8954,0.029 -1.7957,0.028 -2.696,0.03 -0.2235,0 -0.4427,0 -0.6423,-0.1227 -0.073,-0.046 -0.1588,-0.043 -0.2802,-0.026 -0.1165,-0.071 -0.2001,-0.1439 -0.2732,-0.226 -1.8754,-2.1056 -3.8378,-4.1271 -5.892,-6.0592 -0.03,-0.029 -0.063,-0.056 -0.091,-0.085 -0.173,-0.1682 -0.1732,-0.1685 -0.072,-0.4198 0.1204,-0.2995 0.1772,-0.613 0.1857,-0.9337 0.012,-0.3604 0.012,-0.7214 0,-1.0821 -2e-4,-0.5131 -0.015,-1.0265 0.076,-1.5357 0.077,-0.4307 0.2168,-0.8316 0.5077,-1.1676 0.3633,-0.4196 0.771,-0.4182 1.1242,0 0.079,0.096 0.1513,0.1986 0.2262,0.2987 2.7469,3.6671 5.3462,7.436 7.8213,11.3228 z"
         id="path323"
         style="stroke-width:0.0208434" /><path
         fill="#0a4771"
         opacity="1"
         stroke="none"
         d="m 2245.2136,2254.6589 c -0.6866,0.2994 -1.3678,0.5394 -2.0311,0.8215 -2.2139,0.942 -4.2211,2.222 -6.0707,3.7541 -1.5112,1.2518 -2.9084,2.6222 -4.2111,4.0867 -1.0888,1.2241 -2.1487,2.4737 -3.2276,3.7066 -0.686,0.784 -1.3985,1.5433 -2.1813,2.2335 -0.7006,0.6177 -1.4483,1.1677 -2.292,1.5765 -0.847,0.4109 -1.7401,0.6487 -2.6819,0.6967 -0.056,0 -0.1114,0 -0.1667,0 -0.041,0 -0.082,-0.012 -0.1241,-0.012 -0.059,-0.1215 0.046,-0.1784 0.1023,-0.2467 0.7487,-0.9127 1.5306,-1.7966 2.3315,-2.6637 2.2833,-2.4719 4.7097,-4.7926 7.3242,-6.914 2.1277,-1.7265 4.3604,-3.301 6.7684,-4.6177 1.7833,-0.9749 3.634,-1.7895 5.5962,-2.3367 0.2538,-0.071 0.5102,-0.1327 0.801,-0.201 0.049,0.022 0.064,0.047 0.064,0.1113 z"
         id="path325"
         style="stroke-width:0.0208434" /><path
         fill="#0a4771"
         opacity="1"
         stroke="none"
         d="m 2196.6429,2254.5101 c 1.6549,0.3081 3.2171,0.8775 4.7363,1.5723 2.2958,1.0502 4.4278,2.3756 6.4673,3.8553 2.378,1.7249 4.5934,3.6416 6.7004,5.6852 1.7166,1.6649 3.3539,3.4042 4.8984,5.2302 0.044,0.053 0.095,0.1022 0.1341,0.1592 0.1077,0.1574 0.2749,0.2724 0.3346,0.4642 -0.2048,0.1227 -0.4238,0.056 -0.6334,0.034 -1.4525,-0.1472 -2.7207,-0.741 -3.871,-1.615 -0.755,-0.5734 -1.4357,-1.227 -2.0857,-1.9141 -0.946,-0.9997 -1.8276,-2.0557 -2.7222,-3.1002 -1.3657,-1.5945 -2.7806,-3.1416 -4.3339,-4.5578 -1.4725,-1.3423 -3.0425,-2.5531 -4.7675,-3.5576 -1.4575,-0.8486 -2.99,-1.5287 -4.59,-2.0594 -0.066,-0.022 -0.1307,-0.046 -0.224,-0.082 -0.037,-0.035 -0.048,-0.058 -0.043,-0.114 z"
         id="path327"
         style="stroke-width:0.0208434" /><path
         fill="#074a76"
         opacity="1"
         stroke="none"
         d="m 2237.4775,2253.6268 c -0.041,-0.15 -0.119,-0.2483 -0.2864,-0.2545 -0.096,0 -0.1926,0 -0.2889,0 -0.8531,0 -1.7063,0 -2.5991,0 0.053,-0.1214 0.138,-0.2474 0.2368,-0.362 2.8102,-3.2666 5.8003,-6.3607 8.9528,-9.2983 0.091,-0.084 0.1812,-0.1758 0.2865,-0.2398 0.2773,-0.1687 0.6345,-0.1363 0.8162,0.2121 0.1771,0.3399 0.2538,0.7029 0.2603,1.0824 0.012,0.4892 -0.091,0.9655 -0.1862,1.4417 -0.053,0.2584 -0.109,0.5156 -0.17,0.772 -0.093,0.3929 -0.1505,0.7901 -0.1632,1.1937 0,0.083 0,0.1666 -0.013,0.2494 -0.035,0.4001 -0.2178,0.6983 -0.5714,0.9108 -0.5829,0.3502 -1.1549,0.7192 -1.7258,1.0892 -1.5506,1.0052 -3.0549,2.0758 -4.5481,3.2091 z"
         id="path329"
         style="stroke-width:0.0208434" /><path
         fill="#0b3d59"
         opacity="1"
         stroke="none"
         d="m 2200.5197,2257.335 c 0.2709,0.068 0.4994,0.2013 0.7334,0.3215 1.7034,0.8777 3.2173,2.0193 4.6178,3.3179 1.2641,1.1724 2.4159,2.4508 3.5526,3.7437 1.0632,1.209 2.1125,2.4305 3.2351,3.586 0.5226,0.5378 1.0649,1.0548 1.6268,1.5515 0.083,0.072 0.1616,0.1492 0.2405,0.2224 -0.044,0.062 -0.097,0.069 -0.1535,0.069 -1.4532,-0.012 -2.8783,-0.2002 -4.2533,-0.691 -1.0991,-0.3922 -2.0884,-0.9652 -2.9242,-1.7876 -0.8374,-0.824 -1.4279,-1.8012 -1.7882,-2.9152 -0.3509,-1.0846 -0.7771,-2.1355 -1.3431,-3.1272 -0.9248,-1.6208 -2.1037,-3.0267 -3.568,-4.2241 -0.012,-0.027 0.012,-0.059 0.024,-0.066 z"
         id="path331"
         style="stroke-width:0.0208434" /><path
         fill="#0b3d59"
         opacity="1"
         stroke="none"
         d="m 2241.6306,2257.3587 c -0.4319,0.4366 -0.9111,0.8366 -1.3441,1.2887 -1.5816,1.6515 -2.7227,3.5647 -3.4379,5.7338 -0.1266,0.3818 -0.2512,0.7638 -0.4185,1.1305 -0.8182,1.7924 -2.1743,3.0204 -3.9794,3.7728 -0.9804,0.4084 -2.0058,0.6392 -3.0591,0.7639 -0.5117,0.061 -1.0244,0.078 -1.5378,0.096 -0.078,0 -0.1664,0.027 -0.2335,-0.04 -0.012,-0.048 0.022,-0.073 0.051,-0.099 1.4987,-1.2908 2.8141,-2.759 4.1152,-4.2413 1.0807,-1.2312 2.1514,-2.4716 3.2971,-3.6442 1.0498,-1.0742 2.1582,-2.082 3.3751,-2.9663 0.9453,-0.687 1.9404,-1.2905 3.0313,-1.7884 0.055,-0.012 0.082,-0.02 0.1403,0 z"
         id="path333"
         style="stroke-width:0.0208434" /><path
         fill="#084f80"
         opacity="1"
         stroke="none"
         d="m 2212.5259,2232.2278 c -0.1866,-0.3644 -0.2464,-0.7352 -0.3471,-1.0937 -0.3038,-1.0815 -0.5973,-2.1657 -0.8971,-3.2484 -0.071,-0.2546 -0.1419,-0.5072 -0.1126,-0.7769 0.027,-0.2395 0.091,-0.4644 0.2479,-0.6515 0.6653,-0.7931 1.4556,-1.4049 2.4674,-1.6972 0.6152,-0.1777 1.2338,-0.1849 1.8538,-0.041 0.4392,0.1023 0.6931,0.3971 0.7727,0.8309 0.062,0.3406 0.1001,0.6865 0.1411,1.0308 0.1241,1.0333 0.2447,2.0672 0.3646,3.1008 0.091,0.7858 0.1785,1.572 0.2628,2.3951 -0.1327,0.176 -0.3054,0.1698 -0.4703,0.1721 -1.3758,0.02 -2.7519,-0.025 -4.1274,0.029 -0.043,0 -0.081,-0.017 -0.1563,-0.05 z"
         id="path335"
         style="stroke-width:0.0208434" /><path
         fill="#095284"
         opacity="1"
         stroke="none"
         d="m 2220.4217,2220.8458 c -1.1603,0.1747 -2.0676,0.718 -2.7819,1.5945 -0.088,0.1075 -0.1724,0.2182 -0.2712,0.3139 -0.089,0.087 -0.231,0.044 -0.2655,-0.076 -0.037,-0.133 -0.065,-0.2697 -0.088,-0.4064 -0.1051,-0.6577 -0.2071,-1.3159 -0.3113,-1.9738 -0.053,-0.332 -0.069,-0.6609 0.028,-0.9902 0.055,-0.1894 0.1334,-0.3641 0.2505,-0.522 0.9598,-1.2944 2.2373,-2.0057 3.8536,-2.091 0.9651,-0.051 1.8788,0.1439 2.7363,0.5903 0.5751,0.2993 1.0658,0.6996 1.4574,1.2203 0.1984,0.2636 0.3164,0.5537 0.3298,0.8824 0.012,0.1799 0.017,0.3625 0,0.5403 -0.1022,0.8402 -0.2162,1.6793 -0.3265,2.5184 -0.012,0.095 -0.012,0.2146 -0.1178,0.2468 -0.1324,0.037 -0.1964,-0.078 -0.2567,-0.1685 -0.8633,-1.2937 -2.7115,-1.9226 -4.2312,-1.6792 z"
         id="path337"
         style="stroke-width:0.0208434" /><path
         fill="#084b79"
         opacity="1"
         stroke="none"
         d="m 2219.062,2249.5034 c -0.6586,0.034 -1.3114,0.036 -1.964,0.03 -0.1974,0 -0.386,0.024 -0.61,0.093 -0.1838,-0.6708 -0.3339,-1.3451 -0.4731,-2.0219 -0.5148,-2.5057 -1.061,-5.0047 -1.6255,-7.4994 -0.089,-0.3912 -0.1823,-0.781 -0.2725,-1.2033 0.1051,-0.1465 0.246,-0.158 0.3841,-0.1594 1.0408,-0.012 2.0817,-0.012 3.1224,0 0.1116,0 0.2215,0.019 0.3528,0.1022 0.1456,0.4572 0.1438,0.9042 0.1933,1.3443 0.1139,1.0064 0.2084,2.0148 0.3088,3.0227 0.066,0.6628 0.1287,1.3258 0.1919,1.9888 0.077,0.8012 0.1538,1.6021 0.2286,2.4034 0.059,0.6217 0.1127,1.2436 0.1632,1.8997 z"
         id="path339"
         style="stroke-width:0.0208434" /><path
         fill="#084d7c"
         opacity="1"
         stroke="none"
         d="m 2218.0148,2238.8324 c -1.278,0.036 -2.5503,0.036 -3.8597,0.036 -0.2349,-0.8043 -0.4302,-1.6092 -0.6304,-2.413 -0.3337,-1.3401 -0.6704,-2.6795 -1.0052,-4.0194 -0.012,-0.054 -0.022,-0.1088 -0.03,-0.1964 0.4184,-0.1489 0.8462,-0.1202 1.2716,-0.1215 1.1446,0 2.2891,0 3.4738,0 0.1433,0.3317 0.1397,0.6803 0.1817,1.0217 0.1139,0.9344 0.2145,1.8706 0.3137,2.8068 0.1013,0.9499 0.1938,1.9007 0.2846,2.8881 z"
         id="path341"
         style="stroke-width:0.0208434" /><path
         fill="#f1f1f1"
         opacity="1"
         stroke="none"
         d="m 2690.9648,3840.5159 c 5.6182,1.3115 9.441,3.1062 13.3101,3.2121 35.3123,0.9676 69.5686,8.6114 103.7683,16.3833 14.8872,3.3831 29.6106,7.7657 42.9199,15.6726 5.9024,3.5069 5.8758,8.7508 0.1297,12.387 -10.8428,6.8623 -23.0506,10.5962 -35.2327,13.6509 -24.3686,6.1096 -48.9695,11.0515 -73.9084,14.7844 -14.9998,2.2456 -30.2027,2.7971 -45.1851,6.0876 -16.0503,3.525 -32.8235,3.8851 -49.3145,5.2181 -7.2697,0.5881 -14.5458,-0.043 -21.6623,2.684 -3.5862,1.3743 -7.8416,1.2317 -11.8064,1.3436 -8.6318,0.2434 -17.1438,0.015 -25.6226,3.0178 -4.8039,1.7011 -10.5373,0.9807 -15.8532,0.9985 -25.3264,0.085 -50.6538,-0.054 -75.9793,0.1148 -7.9382,0.053 -16.0371,-1.2901 -23.7749,1.6452 -6.9436,2.6336 -14.1052,-1.9389 -21.4438,1.4224 -4.4627,2.0437 -10.4842,0.8169 -15.8059,0.8301 -24.6602,0.061 -49.3201,0 -73.9803,0.07 -9.9489,0.026 -19.8322,-0.4619 -29.6184,3.0057 -4.7968,1.6992 -10.5456,0.8935 -15.8645,0.9062 -28.6589,0.068 -57.3188,0.1531 -85.9768,-0.012 -13.2414,-0.076 -26.5054,1.1141 -39.5984,-3.1814 -5.4541,-1.7893 -11.8913,-0.7116 -17.8816,-0.7167 -53.9856,-0.046 -107.9712,-0.027 -161.9567,-0.069 -8.6269,-0.01 -17.0629,-0.315 -25.6635,-2.6394 -7.5104,-2.0298 -15.845,-1.0049 -23.8153,-1.3372 -12.5581,-0.5237 -25.3743,1.8381 -37.516,-3.3501 -18.0206,0.8826 -35.321,-6.0417 -53.438,-4.7561 -8.5837,0.6094 -17.0047,-0.7139 -25.6098,-2.6794 -12.1617,-2.7784 -24.9407,-3.2261 -37.3832,-4.5594 -33.6405,-3.6052 -66.7969,-9.4853 -99.7104,-16.8584 -14.2182,-3.1848 -28.342,-7.3425 -41.1543,-14.7842 -5.9799,-3.4733 -6.4073,-7.8796 -0.6951,-12.3034 3.6384,-2.8181 7.5892,-5.7341 11.8798,-7.1214 17.6335,-5.7004 34.9616,-12.1621 53.7941,-13.9936 17.0596,-1.6592 33.9904,-5.3237 50.7409,-9.1433 6.5914,-1.5029 13.0732,-1.8357 19.6513,-2.5703 17.7162,-1.9785 35.3078,-5.3809 53.0606,-6.6346 17.2009,-1.2146 33.9001,-6.4394 51.3748,-5.3828 9.8854,0.5974 19.9961,1.2254 29.5469,-2.9992 1.7407,-0.7698 4.1211,-1.1719 5.88,-0.648 12.4945,3.721 24.8769,-0.5132 37.3089,-0.2612 11.9918,0.2434 23.9932,0.1377 35.9889,0.018 7.2825,-0.073 14.6931,0.9133 21.6969,-2.1746 3.8887,-1.7148 7.6481,-0.812 11.6411,0.1729 12.446,3.0703 24.8781,3.1516 37.4099,-0.356 5.0188,-1.4045 10.5117,-1.5317 15.789,-1.5356 108.6377,-0.081 217.2754,-0.062 325.9131,-0.055 2.6653,2e-4 5.4778,-0.4663 7.9732,0.2068 25.5752,6.8982 51.6667,2.5949 77.4978,3.7485 8.6054,0.3843 17.1699,-0.3694 25.6806,2.615 4.8352,1.6953 10.5022,1.3079 15.7984,1.3486 18.6604,0.1433 37.3232,5e-4 55.9844,0.1 9.9399,0.053 19.6577,0.7629 29.6159,2.7829 16.1416,3.2747 32.8523,3.7432 51.0969,5.6966 z"
         id="path343" /><path
         fill="#095284"
         opacity="1"
         stroke="none"
         d="m 2230.2167,2219.5819 c 0.8294,0.4356 1.4752,1.0354 2.0248,1.7471 0.2851,0.3691 0.3543,0.7831 0.2229,1.2188 -0.2478,0.8228 -0.5153,1.6396 -0.7754,2.4586 -0.012,0.039 -0.028,0.078 -0.047,0.1152 -0.095,0.1843 -0.2484,0.2121 -0.4054,0.066 -0.082,-0.075 -0.1468,-0.1658 -0.2187,-0.2504 -0.4537,-0.5342 -0.9775,-0.9841 -1.5997,-1.3124 -0.8829,-0.4659 -1.8081,-0.601 -2.781,-0.3431 -0.067,0.017 -0.1334,0.039 -0.2009,0.055 -0.3567,0.078 -0.5263,-0.075 -0.4879,-0.4469 0.019,-0.1792 0.049,-0.3572 0.075,-0.5354 0.1033,-0.6854 0.2078,-1.3707 0.3131,-2.0558 0.085,-0.5514 0.3891,-0.8879 0.94,-1.0334 0.8632,-0.2281 1.7032,-0.1858 2.5323,0.1346 0.1293,0.052 0.254,0.1113 0.4078,0.1837 z"
         id="path345"
         style="stroke-width:0.0208434" /><path
         fill="#095284"
         opacity="1"
         stroke="none"
         d="m 2211.4733,2219.8366 c 0.546,-0.349 1.1064,-0.5784 1.7199,-0.6748 0.6302,-0.099 1.2462,-0.036 1.8483,0.1621 0.3884,0.1285 0.6202,0.4171 0.7151,0.8024 0.072,0.2956 0.1089,0.5999 0.1549,0.9015 0.082,0.5483 0.1617,1.0972 0.2386,1.6465 0.018,0.1228 0.03,0.2489 0.027,0.3729 0,0.2053 -0.1528,0.3294 -0.3581,0.3111 -0.069,0 -0.135,-0.029 -0.2016,-0.049 -1.3343,-0.3773 -2.5222,-0.058 -3.6025,0.7613 -0.3441,0.2608 -0.6535,0.5591 -0.9278,0.8938 -0.07,0.085 -0.1414,0.1724 -0.2241,0.2448 -0.1383,0.1215 -0.2871,0.086 -0.3723,-0.085 -0.036,-0.073 -0.061,-0.1543 -0.086,-0.2331 -0.2368,-0.7392 -0.4701,-1.4793 -0.7093,-2.2175 -0.1714,-0.5291 -0.099,-1.0045 0.2618,-1.4413 0.4362,-0.5276 0.9149,-1.0052 1.516,-1.3972 z"
         id="path347"
         style="stroke-width:0.0208434" /><path
         fill="#095283"
         opacity="1"
         stroke="none"
         d="m 2209.2656,2226.0363 c -0.1476,0.1389 -0.2971,0.1276 -0.4522,0.1101 -0.3597,-0.041 -0.7192,-0.048 -1.0783,0.012 -0.7526,0.1303 -1.376,0.495 -1.8987,1.0422 -0.4757,0.498 -0.8203,1.0797 -1.0897,1.7089 -0.043,0.1012 -0.079,0.2073 -0.1319,0.3049 -0.1191,0.2238 -0.2975,0.2301 -0.4498,0.019 -0.041,-0.056 -0.072,-0.1189 -0.1063,-0.1782 -0.3581,-0.6099 -0.7302,-1.211 -1.1355,-1.7908 -0.3122,-0.4467 -0.3576,-0.9099 -0.1331,-1.4135 0.3648,-0.8181 0.8155,-1.5756 1.4697,-2.1978 0.8023,-0.7629 1.7533,-1.1489 2.8667,-1.1087 0.1522,0 0.3038,0.028 0.4549,0.047 0.4755,0.06 0.7837,0.3349 0.9446,0.7713 0.1677,0.4546 0.3163,0.9165 0.4693,1.3764 0.096,0.2892 0.1824,0.5816 0.2785,0.8706 0.044,0.1345 0.083,0.2655 -0.012,0.4277 z"
         id="path349"
         style="stroke-width:0.0208434" /><path
         fill="#095283"
         opacity="1"
         stroke="none"
         d="m 2235.9827,2226.9085 c -0.7805,-0.6487 -1.6535,-0.8791 -2.625,-0.7698 -0.069,0.012 -0.1377,0.022 -0.2064,0.02 -0.2559,-0.012 -0.383,-0.161 -0.3371,-0.4068 0.012,-0.055 0.026,-0.1075 0.045,-0.1602 0.2395,-0.7235 0.4773,-1.4473 0.7204,-2.1696 0.1658,-0.4924 0.5025,-0.779 1.0267,-0.8448 1.184,-0.1491 2.2252,0.1648 3.1229,0.9488 0.4749,0.4148 0.8592,0.9054 1.1665,1.4536 0.1623,0.2899 0.3066,0.5902 0.4492,0.8904 0.2289,0.4815 0.1687,0.9375 -0.1266,1.377 -0.2934,0.4372 -0.575,0.8828 -0.8592,1.3264 -0.09,0.14 -0.1708,0.2856 -0.2561,0.4283 -0.042,0.071 -0.083,0.145 -0.13,0.2129 -0.1672,0.2385 -0.3392,0.2325 -0.4677,-0.019 -0.058,-0.11 -0.098,-0.2295 -0.1479,-0.3433 -0.3249,-0.7295 -0.7412,-1.3951 -1.3744,-1.9434 z"
         id="path351"
         style="stroke-width:0.0208434" /><path
         fill="#084f80"
         opacity="1"
         stroke="none"
         d="m 2200.1993,2227.4787 c 0.1725,-0.066 0.3134,-0.1272 0.4602,-0.167 0.494,-0.1342 0.9071,0.012 1.2092,0.4259 0.1064,0.1456 0.2043,0.2975 0.2982,0.4515 0.3756,0.6159 0.7486,1.2333 1.1212,1.8511 0.05,0.083 0.099,0.168 0.1363,0.2568 0.097,0.2291 0.03,0.4036 -0.1956,0.5117 -0.062,0.029 -0.1299,0.047 -0.1967,0.065 -0.6437,0.1628 -1.1541,0.5291 -1.5786,1.0276 -0.3633,0.4266 -0.64,0.907 -0.8654,1.416 -0.1514,0.3419 -0.2779,0.6948 -0.4158,1.0429 -0.041,0.1021 -0.072,0.2113 -0.1254,0.3068 -0.084,0.1473 -0.2617,0.1837 -0.3936,0.081 -0.076,-0.059 -0.1405,-0.1339 -0.2012,-0.2089 -0.5244,-0.6471 -1.0462,-1.2963 -1.57,-1.9439 -0.3022,-0.3735 -0.3865,-0.7866 -0.2432,-1.2477 0.1896,-0.6097 0.4007,-1.2109 0.6793,-1.7866 0.1819,-0.3755 0.39,-0.7348 0.6474,-1.0649 0.3289,-0.4219 0.7174,-0.7715 1.2341,-1.0168 z"
         id="path353"
         style="stroke-width:0.0208434" /><path
         fill="#084f80"
         opacity="1"
         stroke="none"
         d="m 2244.0766,2230.1624 c 0.1409,0.3955 0.2707,0.7611 0.3937,1.1291 0.1615,0.4838 0.09,0.9242 -0.2392,1.3249 -0.5192,0.6331 -1.0294,1.2732 -1.544,1.9102 -0.042,0.055 -0.087,0.1101 -0.135,0.1581 -0.1863,0.1833 -0.3928,0.1536 -0.5043,-0.075 -0.042,-0.088 -0.07,-0.1812 -0.1013,-0.2728 -0.1457,-0.4191 -0.3069,-0.8325 -0.5038,-1.2306 -0.2657,-0.5371 -0.5792,-1.0417 -1.0113,-1.4657 -0.364,-0.3574 -0.7855,-0.6127 -1.2764,-0.7533 -0.093,-0.027 -0.1895,-0.047 -0.2756,-0.09 -0.1891,-0.091 -0.2558,-0.247 -0.1921,-0.4482 0.029,-0.091 0.077,-0.1772 0.1254,-0.2611 0.427,-0.7466 0.8706,-1.4831 1.3447,-2.201 0.037,-0.059 0.075,-0.1165 0.1176,-0.1715 0.3049,-0.3892 0.698,-0.5365 1.1792,-0.4084 0.4919,0.1309 0.9213,0.378 1.2918,0.7281 0.3464,0.3272 0.6213,0.7084 0.8547,1.1211 0.1778,0.3144 0.3294,0.6412 0.476,1.0058 z"
         id="path355"
         style="stroke-width:0.0208434" /><path
         fill="#084c7b"
         opacity="1"
         stroke="none"
         d="m 2193.5174,2239.9692 c 0.3757,-0.2671 0.7149,-0.1964 1.0143,0.06 0.696,0.5958 1.3831,1.2022 2.0643,1.8146 0.272,0.2446 0.275,0.4748 0.053,0.7696 -0.016,0.022 -0.035,0.042 -0.055,0.064 -0.4502,0.4592 -0.5737,1.0231 -0.5493,1.6447 0.024,0.6154 0.19,1.2035 0.311,1.8006 0.066,0.326 0.1356,0.6518 0.1862,0.9802 0.028,0.1769 0.035,0.3605 0.023,0.5391 -0.02,0.2856 -0.259,0.4362 -0.535,0.3508 -0.078,-0.024 -0.1535,-0.064 -0.2283,-0.1001 -0.636,-0.3097 -1.2675,-0.6293 -1.9093,-0.9272 -0.3843,-0.1784 -0.5862,-0.4652 -0.5769,-0.8793 0.017,-0.7843 -0.1437,-1.5435 -0.293,-2.3055 -0.1334,-0.6813 -0.2518,-1.3635 -0.2284,-2.0627 0.022,-0.6631 0.2149,-1.2534 0.7236,-1.7476 z"
         id="path357"
         style="stroke-width:0.0208434" /><path
         fill="#084c7b"
         opacity="1"
         stroke="none"
         d="m 2246.0492,2244.7095 c 0.019,-0.1876 0.047,-0.3394 0.047,-0.491 0,-0.5722 -0.1333,-1.0988 -0.545,-1.5256 -0.048,-0.049 -0.094,-0.1043 -0.1298,-0.1619 -0.1406,-0.2271 -0.1178,-0.4501 0.064,-0.6463 0.047,-0.051 0.1002,-0.096 0.1525,-0.1417 0.6252,-0.5496 1.2509,-1.0984 1.8756,-1.6488 0.1254,-0.1113 0.2567,-0.2079 0.4231,-0.2547 0.2783,-0.078 0.5169,-0.029 0.7255,0.1789 0.3471,0.3452 0.5394,0.7656 0.6291,1.2403 0.1102,0.5828 0.048,1.1616 -0.047,1.7372 -0.097,0.5878 -0.2125,1.1723 -0.3183,1.7586 -0.071,0.3963 -0.1152,0.7954 -0.1126,1.1987 4e-4,0.041 0,0.083 -2e-4,0.1254 0,0.4151 -0.185,0.706 -0.5717,0.8826 -0.517,0.2363 -1.0242,0.4934 -1.5351,0.7424 -0.1372,0.067 -0.2719,0.1387 -0.4093,0.2045 -0.075,0.035 -0.151,0.073 -0.2307,0.094 -0.2356,0.063 -0.4606,-0.071 -0.4978,-0.3117 -0.023,-0.148 -0.012,-0.3042 0,-0.4548 0.058,-0.5809 0.2102,-1.144 0.3289,-1.7134 0.054,-0.2574 0.096,-0.5172 0.147,-0.812 z"
         id="path359"
         style="stroke-width:0.0208434" /><path
         fill="#084e7d"
         opacity="1"
         stroke="none"
         d="m 2195.0135,2235.9373 c 0,-0.4697 -0.012,-0.8994 0.051,-1.3276 0.043,-0.3186 0.1203,-0.6261 0.2598,-0.916 0.1473,-0.3053 0.3669,-0.5468 0.6308,-0.7616 0.2876,-0.2343 0.7562,-0.2034 1.0337,0.05 0.061,0.056 0.1166,0.1189 0.1687,0.1838 0.5761,0.7123 1.1451,1.4301 1.7284,2.1363 0.261,0.3162 0.2599,0.617 -0.1203,0.8769 -0.5491,0.3743 -0.7775,0.9231 -0.8535,1.5517 -0.046,0.3859 -0.052,0.7747 -0.039,1.1636 0.012,0.3881 0.013,0.7765 0.02,1.1649 0,0.2654 -0.034,0.5275 -0.09,0.7843 -0.079,0.3688 -0.3842,0.4803 -0.6941,0.2671 -0.068,-0.046 -0.1288,-0.105 -0.1913,-0.16 -0.5539,-0.4845 -1.0984,-0.9798 -1.6644,-1.4494 -0.3152,-0.2616 -0.4132,-0.5767 -0.3551,-0.96 0.025,-0.1641 0.067,-0.3255 0.096,-0.4891 0.1002,-0.5649 0.068,-1.1336 0.046,-1.702 0,-0.1253 -0.016,-0.2491 -0.026,-0.4133 z"
         id="path361"
         style="stroke-width:0.0208434" /><path
         fill="#084e7d"
         opacity="1"
         stroke="none"
         d="m 2243.8603,2234.5288 c 0.3506,-0.4321 0.6828,-0.8411 1.016,-1.2493 0.07,-0.085 0.1416,-0.1708 0.2165,-0.2526 0.2497,-0.2727 0.7482,-0.3571 1.0949,-0.086 0.4891,0.383 0.7332,0.8888 0.8475,1.4783 0.1012,0.5217 0.079,1.0491 0.075,1.5754 0,0.2632 -0.015,0.5263 -0.03,0.7891 -0.034,0.5568 0,1.1067 0.1293,1.651 0.028,0.1203 0.051,0.2471 0.043,0.369 -0.015,0.258 -0.1177,0.4762 -0.3252,0.6485 -0.3416,0.2833 -0.6725,0.5792 -1.0063,0.8717 -0.2608,0.2284 -0.5185,0.4604 -0.779,0.6893 -0.1044,0.091 -0.2099,0.1792 -0.3589,0.1934 -0.2121,0.02 -0.3528,-0.055 -0.4215,-0.2538 -0.041,-0.1164 -0.064,-0.2413 -0.078,-0.3644 -0.054,-0.4276 -0.055,-0.8571 -0.034,-1.2868 0.025,-0.5403 0.037,-1.0794 -0.037,-1.6182 -0.088,-0.6158 -0.3181,-1.1453 -0.8515,-1.5067 -0.023,-0.015 -0.044,-0.033 -0.066,-0.05 -0.2837,-0.245 -0.3168,-0.4591 -0.095,-0.7579 0.2066,-0.2782 0.4288,-0.5447 0.6621,-0.8398 z"
         id="path363"
         style="stroke-width:0.0208434" /><path
         fill="#074a76"
         opacity="1"
         stroke="none"
         d="m 2197.7527,2254.1497 c -0.6115,-0.089 -1.2093,-0.2092 -1.8149,-0.2857 -0.6576,-0.083 -1.2098,-0.3602 -1.6644,-0.8518 -0.7611,-0.8234 -1.2581,-1.7834 -1.5399,-2.8608 -0.1204,-0.4578 -0.1782,-0.9238 -0.1657,-1.3987 0,-0.2233 0.046,-0.4403 0.088,-0.658 0.078,-0.4189 0.4178,-0.5549 0.7828,-0.461 0.066,0.016 0.1297,0.049 0.1919,0.078 0.6102,0.2976 1.2201,0.5961 1.83,0.8947 0.048,0.024 0.1001,0.048 0.1464,0.078 0.1882,0.1189 0.2971,0.2904 0.3063,0.5134 0,0.124 0.012,0.2528 -0.02,0.3718 -0.1523,0.6412 -0.078,1.2709 0.1089,1.8868 0.3107,1.0158 0.8316,1.9006 1.7112,2.5776 0.033,0.039 0.042,0.061 0.04,0.1139 z"
         id="path365"
         style="stroke-width:0.0208434" /><path
         fill="#074a76"
         opacity="1"
         stroke="none"
         d="m 2244.4314,2254.0619 c 0.9896,-0.8342 1.5628,-1.8704 1.8115,-3.0935 0.093,-0.4526 0.095,-0.9098 0,-1.3648 -0.012,-0.055 -0.028,-0.1074 -0.034,-0.1627 -0.044,-0.3876 0.078,-0.6408 0.4293,-0.8176 0.6196,-0.3124 1.2461,-0.6115 1.8698,-0.9156 0.037,-0.018 0.075,-0.036 0.1139,-0.049 0.053,-0.017 0.1051,-0.035 0.16,-0.043 0.3515,-0.053 0.5873,0.105 0.6803,0.4533 0.1204,0.4504 0.1254,0.9113 0.064,1.3651 -0.1847,1.372 -0.744,2.5729 -1.6885,3.5946 -0.4455,0.4816 -0.9891,0.7505 -1.6317,0.8346 -0.5648,0.073 -1.1245,0.177 -1.717,0.3002 -0.046,-0.016 -0.059,-0.04 -0.058,-0.1001 z"
         id="path367"
         style="stroke-width:0.0208434" /><path
         fill="#e8e8e8"
         opacity="1"
         stroke="none"
         d="m 2227.4521,2258.9778 c -0.2787,0.5885 -0.5967,1.1672 -0.9166,1.7448 -0.012,0.022 -0.041,0.033 -0.089,0.067 0.04,-0.2403 0.167,-0.4218 0.2534,-0.6172 0.089,-0.2014 0.1911,-0.3968 0.2894,-0.5941 0.097,-0.1973 0.1981,-0.3934 0.3194,-0.6067 0.048,-0.012 0.076,-0.012 0.1424,0 z"
         id="path369"
         style="stroke-width:0.0208434" /><path
         fill="#e8e8e8"
         opacity="1"
         stroke="none"
         d="m 2224.4096,2256.7861 c 0.015,0.334 -0.1101,0.6443 -0.1729,0.9671 -0.064,0.3233 -0.1472,0.6425 -0.2236,0.9961 -0.024,0.046 -0.046,0.059 -0.1101,0.067 0.062,-0.4989 0.1653,-0.9935 0.2667,-1.4883 0.033,-0.1607 0.064,-0.3222 0.1077,-0.514 0.044,-0.03 0.076,-0.029 0.1318,-0.028 z"
         id="path371"
         style="stroke-width:0.0208434" /><path
         fill="#e8e8e8"
         opacity="1"
         stroke="none"
         d="m 2217.868,2257.1135 c 0.2242,0.7502 0.3291,1.5167 0.4636,2.2786 -0.1699,-0.3402 -0.2146,-0.7142 -0.3091,-1.0737 -0.099,-0.375 -0.1753,-0.7556 -0.2581,-1.1669 0.025,-0.034 0.048,-0.035 0.1043,-0.037 z"
         id="path373"
         style="stroke-width:0.0208434" /><path
         fill="#3f7192"
         opacity="1"
         stroke="none"
         d="m 2245.2326,2254.7008 c -0.034,-0.028 -0.035,-0.053 -0.042,-0.1176 0.3665,-0.1932 0.7664,-0.2064 1.1568,-0.2751 -0.3395,0.1931 -0.7212,0.2659 -1.1149,0.3927 z"
         id="path375"
         style="stroke-width:0.0208434" /><path
         fill="#3f7192"
         opacity="1"
         stroke="none"
         d="m 2221.0156,2270.2381 c 0.035,-0.04 0.064,-0.043 0.1101,-0.046 0.053,0.3848 0,0.7606 -0.077,1.1148 -0.012,-0.3316 -0.026,-0.6814 -0.034,-1.0698 z"
         id="path377"
         style="stroke-width:0.0208434" /><path
         fill="#3f7192"
         opacity="1"
         stroke="none"
         d="m 2222.0395,2271.3545 c -0.055,-0.188 0.095,-0.3341 0.1771,-0.5019 0.05,-0.1023 0.076,-0.2482 0.2305,-0.2494 0.085,0 0.049,0.1525 -0.091,0.3392 -0.099,0.1308 -0.2023,0.2582 -0.3159,0.4121 z"
         id="path379"
         style="stroke-width:0.0208434" /><path
         fill="#3f7192"
         opacity="1"
         stroke="none"
         d="m 2219.6883,2270.8113 c 0.019,-0.048 0.044,-0.072 0.084,-0.1164 0.1815,0.1606 0.2569,0.392 0.3492,0.6172 -0.1847,-0.1239 -0.2938,-0.3089 -0.4332,-0.5011 z"
         id="path381"
         style="stroke-width:0.0208434" /><path
         fill="#e8e8e8"
         opacity="1"
         stroke="none"
         d="m 2214.6919,2263.9382 c -0.2089,-0.185 -0.3954,-0.3925 -0.591,-0.6267 0.012,-0.046 0.035,-0.064 0.067,-0.1012 0.2285,0.1583 0.3603,0.4077 0.5648,0.637 0.012,0.036 0,0.054 -0.042,0.091 z"
         id="path383"
         style="stroke-width:0.0208434" /><path
         fill="#3f7192"
         opacity="1"
         stroke="none"
         d="m 2221.9356,2270.5541 c 0.037,-0.022 0.061,-0.023 0.1179,-0.023 -0.039,0.2539 -0.181,0.4703 -0.3408,0.7271 0.034,-0.2687 0.1275,-0.4742 0.2226,-0.7047 z"
         id="path385"
         style="stroke-width:0.0208434" /><path
         fill="#3f7192"
         opacity="1"
         stroke="none"
         d="m 2220.0066,2270.4866 c 0.022,-0.031 0.044,-0.033 0.1033,-0.036 0.1706,0.2231 0.2105,0.4812 0.322,0.7387 -0.1582,-0.07 -0.1758,-0.2053 -0.238,-0.3068 -0.071,-0.1164 -0.1242,-0.243 -0.1879,-0.3953 z"
         id="path387"
         style="stroke-width:0.0208434" /><path
         fill="#3f7192"
         opacity="1"
         stroke="none"
         d="m 2196.6316,2254.4616 c 0.028,0.036 0.029,0.06 0.028,0.1164 -0.2154,0.03 -0.3983,-0.09 -0.6348,-0.1265 -0.044,-0.025 -0.059,-0.047 -0.073,-0.1114 0.2176,0.012 0.4354,0.059 0.68,0.1215 z"
         id="path389"
         style="stroke-width:0.0208434" /><path
         fill="#084b79"
         opacity="1"
         stroke="none"
         d="m 2216.6579,2250.6522 c 0.1719,-0.028 0.2195,0.099 0.2534,0.2274 0.024,0.091 0.022,0.1862 -0.1216,0.2343 -0.1126,-0.1276 -0.1089,-0.2819 -0.1315,-0.4617 z"
         id="path391"
         style="stroke-width:0.0208434" /><path
         fill="#3f7192"
         opacity="1"
         stroke="none"
         d="m 2244.4166,2254.0292 c 0.029,0.019 0.031,0.043 0.035,0.1033 -0.1216,0.093 -0.2501,0.1253 -0.4212,0.124 0.1391,-0.086 0.2488,-0.1551 0.386,-0.2276 z"
         id="path393"
         style="stroke-width:0.0208434" /><path
         fill="#3f7192"
         opacity="1"
         stroke="none"
         d="m 2197.758,2254.1955 c -0.022,-0.034 -0.024,-0.056 -0.025,-0.1101 0.1254,-0.012 0.2105,0.078 0.3142,0.1404 -0.096,0.075 -0.1797,-0.02 -0.2888,-0.03 z"
         id="path395"
         style="stroke-width:0.0208434" /><path
         fill="#3f7192"
         opacity="1"
         stroke="none"
         d="m 2220.5998,2271.0627 c 0.031,-0.031 0.061,-0.034 0.1115,-0.035 0.065,0.1139 0.065,0.226 0.025,0.3556 -0.094,-0.088 -0.1051,-0.1951 -0.1364,-0.3201 z"
         id="path397"
         style="stroke-width:0.0208434" /><path
         fill="#084b79"
         opacity="1"
         stroke="none"
         d="m 2219.102,2250.0881 c -0.047,0.023 -0.091,0.022 -0.1271,0 -0.066,-0.03 -0.1204,-0.083 -0.094,-0.161 0.019,-0.056 0.088,-0.059 0.1706,-0.062 0.037,0.062 0.047,0.1252 0.052,0.2185 z"
         id="path399"
         style="stroke-width:0.0208434" /><path
         fill="#3f7192"
         opacity="1"
         stroke="none"
         d="m 2221.3856,2271.1379 c 0.033,-0.022 0.048,-0.024 0.091,-0.024 0.04,0.1163 -0.015,0.2019 -0.088,0.2837 -0.049,-0.08 -0.033,-0.1603 0,-0.26 z"
         id="path401"
         style="stroke-width:0.0208434" /><path
         fill="#e8e8e8"
         opacity="1"
         stroke="none"
         d="m 2195.9304,2254.2906 c 0.028,0.034 0.035,0.06 0.054,0.1216 -0.029,0.034 -0.077,0.042 -0.1051,0.024 -0.056,-0.037 -0.1848,-0.018 -0.1506,-0.1273 0.016,-0.055 0.1165,-0.033 0.2025,-0.018 z"
         id="path403"
         style="stroke-width:0.0208434" /><path
         fill="#3f7192"
         opacity="1"
         stroke="none"
         d="m 2241.6892,2257.3771 c -0.049,0 -0.073,0 -0.134,-0.012 0.047,-0.1011 0.1505,-0.149 0.2786,-0.145 -0.012,0.078 -0.065,0.1151 -0.1446,0.1543 z"
         id="path405"
         style="stroke-width:0.0208434" /><path
         fill="#084b79"
         opacity="1"
         stroke="none"
         d="m 2219.1904,2251.0914 c -0.053,0.012 -0.1152,0 -0.1358,-0.028 -0.03,-0.049 0.015,-0.088 0.093,-0.1074 0.033,0.033 0.041,0.07 0.043,0.1349 z"
         id="path407"
         style="stroke-width:0.0208434" /><path
         fill="#3f7192"
         opacity="1"
         stroke="none"
         d="m 2221.6284,2271.4683 c 0.012,0 0.019,-0.012 0.019,-0.017 0,-0.03 -0.013,-0.027 -0.019,0.017 z"
         id="path409"
         style="stroke-width:0.0208434" /><path
         fill="#0b3d59"
         opacity="1"
         stroke="none"
         d="m 2200.4096,2257.2645 c 0,0.013 -0.012,0.025 -0.02,0.022 -0.02,-0.012 -0.037,-0.024 -0.058,-0.036 0.02,0 0.041,0 0.077,0.015 z"
         id="path411"
         style="stroke-width:0.0208434" /><path
         fill="#3f7192"
         opacity="1"
         stroke="none"
         d="m 2222.0227,2271.3777 c 0,-1e-4 -0.012,0.012 0,0 0.012,0 0,0 0,0 z"
         id="path413"
         style="stroke-width:0.0208434" /><path
         fill="#3f7192"
         opacity="1"
         stroke="none"
         d="m 2220.22,2271.4937 c -4e-4,0 2e-4,0 0,0 z"
         id="path415"
         style="stroke-width:0.0208434" /><path
         fill="#e8e8e8"
         opacity="1"
         stroke="none"
         d="M 2195.525,2254.2487 Z"
         id="path417"
         style="stroke-width:0.0208434" /><path
         fill="#0b3d59"
         opacity="1"
         stroke="none"
         d="m 2200.4181,2257.2793 c 0.026,0.012 0.056,0.012 0.1011,0.033 0.017,0.014 -0.012,0.037 -0.018,0.049 -0.042,0 -0.073,-0.023 -0.09,-0.065 0.015,-0.024 0.012,-0.02 0.012,-0.019 z"
         id="path419"
         style="stroke-width:0.0208434" /><path
         fill="#e8e8e8"
         opacity="1"
         stroke="none"
         d="m 2227.5789,2258.7983 c 0.012,0.017 0,0.046 -0.027,0.088 -0.012,-0.017 0,-0.046 0.027,-0.088 z"
         id="path421"
         style="stroke-width:0.0208434" /><path
         fill="#3f7192"
         opacity="1"
         stroke="none"
         d="m 2215.0131,2264.2647 c 0.091,0.012 0.1365,0.059 0.1738,0.1448 0.012,0.024 0,0.061 -0.017,0.064 -0.088,-0.012 -0.1367,-0.054 -0.1798,-0.1377 0,-0.037 0,-0.053 0.024,-0.071 z"
         id="path423"
         style="stroke-width:0.0208434" /><path
         fill="#3f7192"
         opacity="1"
         stroke="none"
         d="m 2214.7399,2263.8968 c 0.072,-0.015 0.099,0.028 0.1229,0.095 0,0.037 0,0.058 -0.031,0.067 -0.086,0.012 -0.1203,-0.024 -0.1567,-0.081 0.013,-0.029 0.031,-0.041 0.066,-0.081 z"
         id="path425"
         style="stroke-width:0.0208434" /><path
         fill="#3f7192"
         opacity="1"
         stroke="none"
         d="m 2214.8513,2264.0226 c 0.041,0.026 0.069,0.066 0.095,0.1279 0,0.039 0,0.053 -0.028,0.072 -0.051,-0.035 -0.082,-0.077 -0.1128,-0.1454 0,-0.027 0.03,-0.045 0.046,-0.056 z"
         id="path427"
         style="stroke-width:0.0208434" /><path
         fill="#3f7192"
         opacity="1"
         stroke="none"
         d="m 2214.9936,2264.299 c -0.036,0 -0.056,-0.017 -0.085,-0.055 -0.012,-0.016 0.012,-0.042 0.025,-0.056 0.035,0 0.059,0.017 0.091,0.054 0.012,0.019 -0.018,0.044 -0.031,0.059 z"
         id="path429"
         style="stroke-width:0.0208434" /><path
         fill="#3f7192"
         opacity="1"
         stroke="none"
         d="m 2215.1832,2264.4441 c 0.024,0.012 0.05,0.03 0.048,0.048 0,0.031 -0.03,0.035 -0.067,0 -0.012,-0.013 0.012,-0.035 0.02,-0.046 z"
         id="path431"
         style="stroke-width:0.0208434" /><path
         fill="#3f7192"
         opacity="1"
         stroke="none"
         d="m 2215.3367,2264.6883 c -0.012,0.012 -0.026,0 -0.03,0 -0.012,-0.031 0,-0.036 0.03,0 z"
         id="path433"
         style="stroke-width:0.0208434" /><path
         fill="#3f7192"
         opacity="1"
         stroke="none"
         d="m 2215.3408,2264.7023 c 0.012,0.012 0.024,0.027 0.035,0.041 -0.012,0 -0.017,-0.012 -0.031,-0.025 0,-0.012 0,-0.013 0,-0.015 z"
         id="path435"
         style="stroke-width:0.0208434" /><path
         fill="#3f7192"
         opacity="1"
         stroke="none"
         d="m 2223.8504,2258.8362 c 0.037,-0.028 0.064,-0.031 0.1254,-0.044 0.064,0.1051 0.012,0.2067 -0.015,0.3137 -0.1202,0.5242 -0.2396,1.0483 -0.3541,1.5736 -0.029,0.1321 -0.065,0.2583 -0.1626,0.4423 -0.02,-0.4506 0.1178,-0.8031 0.1699,-1.1671 0.054,-0.3674 0.148,-0.729 0.2376,-1.1176 z"
         id="path437"
         style="stroke-width:0.0208434" /><path
         fill="#3f7192"
         opacity="1"
         stroke="none"
         d="m 2223.426,2261.3669 c -0.012,0.045 -0.02,0.069 -0.03,0.093 -0.06,-0.041 -0.06,-0.1373 0,-0.1826 0.012,0.023 0.022,0.045 0.031,0.091 z"
         id="path439"
         style="stroke-width:0.0208434" /><path
         fill="#e8e8e8"
         opacity="1"
         stroke="none"
         d="m 2227.7431,2263.5908 c -0.034,0.1401 -0.1253,0.2181 -0.2194,0.2916 -0.013,0.012 -0.048,0.012 -0.068,0 -0.03,-0.012 -0.033,-0.042 -0.012,-0.069 0.062,-0.085 0.1253,-0.1718 0.2142,-0.2706 0.041,0 0.058,0.012 0.088,0.048 z"
         id="path441"
         style="stroke-width:0.0208434" /><path
         fill="#e8e8e8"
         opacity="1"
         stroke="none"
         d="m 2227.1323,2264.2238 c 0.082,-0.093 0.114,-0.2317 0.237,-0.2823 0.012,0 0.023,0 0.03,0.012 0.012,0.012 0.025,0.029 0.023,0.032 -0.067,0.088 -0.1356,0.1719 -0.2223,0.2842 -0.028,0.012 -0.037,0 -0.069,-0.042 z"
         id="path443"
         style="stroke-width:0.0208434" /><path
         fill="#3f7192"
         opacity="1"
         stroke="none"
         d="m 2227.1649,2264.27 c -0.012,0.095 -0.059,0.1359 -0.1227,0.081 -0.045,-0.037 -0.012,-0.094 0.048,-0.1397 0.031,0.012 0.044,0.022 0.073,0.059 z"
         id="path445"
         style="stroke-width:0.0208434" /><path
         fill="#fefeff"
         opacity="1"
         stroke="none"
         d="m 2227.7724,2263.6078 c -0.04,0 -0.059,-0.022 -0.082,-0.061 -0.012,-0.018 0,-0.055 0.018,-0.065 0.031,0 0.047,0.015 0.075,0.056 0.012,0.028 0,0.061 -0.012,0.07 z"
         id="path447"
         style="stroke-width:0.0208434" /><path
         fill="#3f7192"
         opacity="1"
         stroke="none"
         d="m 2226.554,2264.9866 c 0,0 0.012,0.012 0.012,0.012 0,0 -0.013,-0.012 -0.012,-0.012 z"
         id="path449"
         style="stroke-width:0.0208434" /><path
         fill="#3f7192"
         opacity="1"
         stroke="none"
         d="m 2226.6737,2264.7978 c 0.012,0.018 0,0.046 -0.019,0.043 -0.029,0 -0.03,-0.027 0.019,-0.043 z"
         id="path451"
         style="stroke-width:0.0208434" /><path
         fill="#3f7192"
         opacity="1"
         stroke="none"
         d="m 2226.7473,2264.7081 c 0.012,0.024 0,0.048 -0.028,0.083 -0.018,0.012 -0.032,0 -0.041,-0.012 0,-0.034 0.019,-0.056 0.069,-0.072 z"
         id="path453"
         style="stroke-width:0.0208434" /><path
         fill="#fefeff"
         opacity="1"
         stroke="none"
         d="m 2227.7418,2263.4957 c 0.013,-0.066 0.051,-0.095 0.1023,-0.06 0.04,0.027 0.019,0.063 -0.022,0.1114 -0.039,0 -0.053,-0.012 -0.082,-0.053 z"
         id="path455"
         style="stroke-width:0.0208434" /><path
         fill="#3f7192"
         opacity="1"
         stroke="none"
         d="m 2226.913,2264.5303 c 0.012,-0.05 0.031,-0.081 0.07,-0.06 0.012,0 0,0.039 -0.012,0.075 -0.029,0.012 -0.042,0.012 -0.061,-0.014 z"
         id="path457"
         style="stroke-width:0.0208434" /><path
         fill="#3f7192"
         opacity="1"
         stroke="none"
         d="m 2226.9458,2264.548 c -0.012,0.033 -0.026,0.053 -0.075,0.069 -0.018,-0.03 -0.012,-0.058 0.018,-0.095 0.019,-0.012 0.042,0.013 0.056,0.027 z"
         id="path459"
         style="stroke-width:0.0208434" /><path
         fill="#3f7192"
         opacity="1"
         stroke="none"
         d="m 2226.7653,2264.7008 c 0.012,-0.028 0.024,-0.053 0.059,-0.082 0.02,0 0.027,0 0.03,0 -0.012,0.028 -0.025,0.052 -0.061,0.081 -0.022,0 -0.026,0 -0.028,0 z"
         id="path461"
         style="stroke-width:0.0208434" /><path
         fill="#e8e8e8"
         opacity="1"
         stroke="none"
         d="m 2215.5518,2260.6621 c -0.2651,-0.4702 -0.5145,-0.9149 -0.7609,-1.3611 -0.045,-0.083 -0.083,-0.1728 -0.1164,-0.2624 0,-0.016 0.017,-0.055 0.037,-0.067 0.019,-0.012 0.06,-0.019 0.077,-0.012 0.033,0.023 0.064,0.056 0.082,0.091 0.3311,0.6494 0.6653,1.2974 0.9439,1.9717 0,0.012 -0.012,0.025 -0.017,0.054 -0.078,-0.1368 -0.153,-0.2647 -0.2436,-0.4173 z"
         id="path463"
         style="stroke-width:0.0208434" /><path
         fill="#3f7192"
         opacity="1"
         stroke="none"
         d="m 2226.2023,2261.2786 c 0.041,0.012 0.046,0.041 0.033,0.059 -0.022,0.03 -0.067,0.081 -0.078,0.075 -0.065,-0.033 -0.036,-0.077 0.046,-0.133 z"
         id="path465"
         style="stroke-width:0.0208434" /><path
         fill="#3f7192"
         opacity="1"
         stroke="none"
         d="M 2225.9801,2261.7395 Z"
         id="path467"
         style="stroke-width:0.0208434" /><path
         fill="#e8e8e8"
         opacity="1"
         stroke="none"
         d="m 2226.4038,2260.9261 c -0.02,0 -0.035,-0.012 -0.033,-0.016 0.017,-0.037 0.033,-0.036 0.033,0.016 z"
         id="path469"
         style="stroke-width:0.0208434" /><path
         fill="#e8e8e8"
         opacity="1"
         stroke="none"
         d="m 2226.302,2261.0644 c 0.015,0 0.025,0.012 0.023,0.013 -0.012,0.029 -0.025,0.028 -0.023,-0.013 z"
         id="path471"
         style="stroke-width:0.0208434" /><path
         fill="#e8e8e8"
         opacity="1"
         stroke="none"
         d="m 2226.2416,2261.253 c 0,0.012 -0.019,0.012 -0.028,0.016 -0.012,0.012 4e-4,-0.021 4e-4,-0.021 0,0 0.023,0 0.027,0 z"
         id="path473"
         style="stroke-width:0.0208434" /><path
         fill="#3f7192"
         opacity="1"
         stroke="none"
         d="m 2226.0529,2261.5682 c 0.012,-0.012 0.012,0.017 0.012,0.017 0,0 -0.019,-0.012 -0.012,-0.017 z"
         id="path475"
         style="stroke-width:0.0208434" /><path
         fill="#3f7192"
         opacity="1"
         stroke="none"
         d="m 2218.414,2259.8527 c 0.023,0.024 0.043,0.028 0.045,0.037 0.1153,0.3232 0.2015,0.653 0.2164,0.9981 0,0.025 -0.017,0.05 -0.039,0.1075 -0.1648,-0.3612 -0.1805,-0.7359 -0.2798,-1.1188 0,-0.033 0.046,-0.041 0.056,-0.024 z"
         id="path477"
         style="stroke-width:0.0208434" /><path
         fill="#094a75"
         opacity="1"
         stroke="none"
         d="m 2218.8223,2261.7641 c 0.067,0.055 0.1091,0.1022 0.048,0.1428 -0.06,0.037 -0.09,-0.019 -0.1064,-0.097 0.012,-0.038 0.025,-0.054 0.06,-0.046 z"
         id="path479"
         style="stroke-width:0.0208434" /><path
         fill="#e8e8e8"
         opacity="1"
         stroke="none"
         d="m 2218.4204,2259.8409 c 0,0.028 -0.02,0 -0.037,0 -0.018,-0.077 -0.018,-0.1541 -0.018,-0.2312 0.012,0 0.025,0 0.037,0 0,0.067 0.012,0.1351 0.019,0.2307 z"
         id="path481"
         style="stroke-width:0.0208434" /><path
         fill="#095283"
         opacity="1"
         stroke="none"
         d="m 2218.8431,2261.7603 c 0,0.025 -0.041,0.025 -0.063,0.025 -0.02,-0.025 -0.025,-0.053 -0.019,-0.076 0.012,-0.035 0.023,-0.069 0.035,-0.1022 0.015,0.03 0.031,0.06 0.045,0.09 0,0.012 0,0.025 0,0.064 z"
         id="path483"
         style="stroke-width:0.0208434" /><path
         fill="#3f7192"
         opacity="1"
         stroke="none"
         d="m 2218.6976,2261.3813 c -0.019,-0.053 -0.022,-0.091 -0.015,-0.1293 0,-0.024 0.022,-0.044 0.033,-0.066 0.012,0.019 0.03,0.037 0.036,0.058 0.012,0.024 0,0.053 0.012,0.1043 -0.013,0.033 -0.028,0.04 -0.062,0.035 z"
         id="path485"
         style="stroke-width:0.0208434" /><path
         fill="#095283"
         opacity="1"
         stroke="none"
         d="m 2218.6842,2261.3834 c -0.012,-0.013 0.034,-0.012 0.055,-0.012 0,0.029 -0.012,0.059 -0.055,0.012 z"
         id="path487"
         style="stroke-width:0.0208434" /><path
         fill="#e8e8e8"
         opacity="1"
         stroke="none"
         d="m 2213.0991,2269.7486 c -0.3132,0.033 -0.5928,-0.058 -0.8733,-0.128 -1.2621,-0.3203 -2.4484,-0.8103 -3.4912,-1.6059 -0.8665,-0.6611 -1.5382,-1.4765 -1.9475,-2.4946 -0.077,-0.1911 -0.1509,-0.3837 -0.1868,-0.6291 0.058,0.093 0.099,0.1462 0.1254,0.2068 0.4129,0.9166 1.0468,1.6614 1.8031,2.309 1.1979,1.0259 2.5722,1.7293 4.0701,2.2031 0.1317,0.041 0.2662,0.075 0.4304,0.1138 0.049,0 0.069,0 0.07,0.025 z"
         id="path489"
         style="stroke-width:0.0208434" /><path
         fill="#3f7192"
         opacity="1"
         stroke="none"
         d="m 2213.0985,2269.7995 c -0.017,-0.029 -0.039,-0.045 -0.039,-0.06 0.1832,-0.039 0.348,0.052 0.5252,0.067 0.1139,0.012 0.2242,0.069 0.3837,0.1202 -0.3297,0.055 -0.5882,-0.053 -0.8702,-0.1283 z"
         id="path491"
         style="stroke-width:0.0208434" /><path
         fill="#e8e8e8"
         opacity="1"
         stroke="none"
         d="m 2206.5305,2264.6162 c -0.012,0.041 -0.034,0.095 0.018,0.085 0.025,0 0.025,-0.065 -0.018,-0.085 z"
         id="path493"
         style="stroke-width:0.0208434" /><path
         fill="#e8e8e8"
         opacity="1"
         stroke="none"
         d="m 2235.4835,2265.0883 c -0.07,0.2315 -0.1533,0.466 -0.2567,0.6915 -0.4204,0.9148 -1.0605,1.6518 -1.8598,2.2553 -0.954,0.7199 -2.0283,1.1903 -3.174,1.5077 -0.3592,0.1001 -0.7179,0.207 -1.1186,0.2063 0.3878,-0.09 0.7751,-0.2417 1.1632,-0.3864 1.1522,-0.4297 2.2154,-1.0194 3.1715,-1.796 0.8394,-0.682 1.536,-1.4804 2.0151,-2.4945 0.022,-0.013 0.028,3e-4 0.06,0.016 z"
         id="path495"
         style="stroke-width:0.0208434" /><path
         fill="#3f7192"
         opacity="1"
         stroke="none"
         d="m 2229.0164,2269.7235 c 0.034,0.012 0.035,0.03 0.024,0.035 -0.025,0.028 -0.034,0.065 -0.055,0.071 -0.2582,0.083 -0.5197,0.1466 -0.8303,0.1001 0.2872,-0.1286 0.564,-0.1427 0.8605,-0.2064 z"
         id="path497"
         style="stroke-width:0.0208434" /><path
         fill="#3f7192"
         opacity="1"
         stroke="none"
         d="m 2235.4459,2265.07 c 0,-0.079 -0.013,-0.1364 0,-0.1858 0.023,-0.076 0.05,-0.1549 0.1229,-0.2088 0.1032,0.136 0,0.253 -0.047,0.3952 -0.033,0.022 -0.053,0.024 -0.077,0 z"
         id="path499"
         style="stroke-width:0.0208434" /><path
         fill="#e8e8e8"
         opacity="1"
         stroke="none"
         d="m 2006.9479,3855.8867 c 10.8259,-2.6452 19.8402,-4.5322 29.3265,-3.9814 7.2808,0.4223 14.4597,-0.106 21.69,-2.3111 5.5669,-1.6982 11.8127,-1.312 17.769,-1.5622 17.1973,-0.7227 34.5647,1.8686 51.5251,-3.6331 4.2386,-1.375 9.262,-0.3806 13.9246,-0.3894 13.9924,-0.026 27.9846,0 41.9771,-0.016 3.997,0 8.2238,0.7625 11.9541,-0.2566 23.5961,-6.4458 47.6494,-2.9084 71.4895,-3.6655 12.6469,-0.4019 25.3183,-0.1629 37.9768,-0.043 10.5962,0.1003 21.134,-0.5974 31.6098,3.0031 5.4207,1.8631 11.8682,0.7178 17.8501,0.9722 19.1829,0.8154 38.5257,-2.1545 57.5327,3.5684 5.514,1.6601 11.918,0.3293 17.9126,0.4353 11.9217,0.2109 23.8785,-0.9685 35.5725,3.2397 4.1778,1.5029 9.2298,0.6536 13.8853,0.7346 7.9666,0.1387 15.9993,-0.6071 23.6069,2.8384 1.7513,0.7932 3.9529,1.1885 5.8526,0.9641 18.1181,-2.1379 35.6648,2.9959 53.4148,4.7034 30.8672,2.9695 61.9592,5.8664 91.7353,15.7209 1.8675,0.6182 3.9859,0.9861 5.459,2.1434 1.4204,1.1159 2.9102,3.0749 2.9751,4.7185 0.062,1.5781 -1.2808,3.8508 -2.6851,4.7124 -2.7785,1.7045 -5.9204,3.1215 -9.0966,3.8244 -17.4375,3.8587 -34.9314,7.4639 -52.4051,11.1616 -1.2976,0.2745 -2.6228,0.9527 -3.8752,0.8301 -17.4273,-1.7063 -34.1011,5.0403 -51.4448,4.5154 -4.5701,-0.1387 -9.3999,0.384 -13.7193,1.7981 -5.8781,1.9238 -11.7553,2.0207 -17.7422,2.0923 -10.6059,0.1269 -21.2358,-0.7966 -31.5737,3.1926 -3.5378,1.3655 -7.8979,0.7034 -11.886,0.7778 -9.2888,0.1736 -18.4455,-0.064 -27.6101,3.0367 -5.4385,1.8403 -11.8664,0.7578 -17.8493,0.987 -17.8624,0.6841 -35.9004,-2.0354 -53.5228,3.6214 -4.2456,1.3628 -9.2641,0.3635 -13.9272,0.3711 -14.6587,0.024 -29.3171,-0.01 -43.9758,0.023 -3.9947,0.01 -8.197,-0.6079 -11.9497,0.3921 -26.2693,7.0002 -53.0122,2.1291 -79.4876,3.5603 -24.2212,-6.1438 -49.1826,-1.417 -73.3679,-4.5833 -20.5808,-2.6945 -41.2485,-1.145 -61.4439,-4.112 -13.9128,-2.0442 -28.1708,-0.752 -41.4193,-3.8655 -18.3045,-4.3013 -36.8781,-2.9792 -55.2303,-5.967 -16.773,-2.7307 -33.8904,-5.6692 -51.2839,-5.741 -18.5339,-0.076 -36.6685,-4.8374 -54.7032,-9.0837 -6.4244,-1.513 -12.7717,-3.4371 -19.0219,-5.5625 -2.376,-0.8081 -4.9319,-2.2254 -4.9507,-5.5157 -0.018,-3.0791 1.9059,-5.4631 4.3801,-5.9575 21.3856,-4.2724 41.7832,-12.6658 63.9761,-13.8418 15.774,-0.8354 31.5198,-3.5119 47.093,-6.3745 10.6576,-1.9592 21.2397,-0.7637 33.683,-1.4756 z"
         id="path501" /><text
         xml:space="preserve"
         style="font-style:normal;font-variant:normal;font-weight:normal;font-stretch:normal;font-size:45.3333px;font-family:Jomolhari;-inkscape-font-specification:Jomolhari;fill:#074975;fill-opacity:1"
         x="2250.2952"
         y="2261.7522"
         id="text669"><tspan
           sodipodi:role="line"
           id="tspan667"
           x="2250.2952"
           y="2261.7522"
           style="font-style:normal;font-variant:normal;font-weight:normal;font-stretch:normal;font-size:45.3333px;font-family:Jomolhari;-inkscape-font-specification:Jomolhari;fill:#074975;fill-opacity:1">DOMINUS</tspan></text></g></g></svg>
